<svg xmlns="http://www.w3.org/2000/svg" viewBox="0 0 64 64" fill="none">
  <defs>
    <linearGradient id="bg" x1="8" y1="8" x2="56" y2="56" gradientUnits="userSpaceOnUse">
      <stop stop-color="#39ff14"/>
      <stop offset="1" stop-color="#00ff87"/>
    </linearGradient>
    <linearGradient id="leaf" x1="20" y1="16" x2="44" y2="48" gradientUnits="userSpaceOnUse">
      <stop stop-color="#041008"/>
      <stop offset="1" stop-color="#0b1810"/>
    </linearGradient>
  </defs>
  <rect x="4" y="4" width="56" height="56" rx="16" fill="url(#bg)"/>
  <path d="M32 14c-10 8-14 18-12 28 2 8 8 12 12 12s10-4 12-12c2-10-2-20-12-28z" fill="url(#leaf)"/>
  <path d="M32 18v28" stroke="#39ff14" stroke-width="2" stroke-linecap="round" opacity="0.9"/>
  <path d="M32 28c-6 2-10 6-12 10" stroke="#00ff87" stroke-width="1.5" stroke-linecap="round" opacity="0.85"/>
  <path d="M32 34c6 2 10 6 12 10" stroke="#00ff87" stroke-width="1.5" stroke-linecap="round" opacity="0.85"/>
  <circle cx="22" cy="24" r="2" fill="#39ff14"/>
  <circle cx="42" cy="24" r="2" fill="#39ff14"/>
  <circle cx="32" cy="44" r="2" fill="#00ff87"/>
  <path d="M22 24l10 10 10-10" stroke="#39ff14" stroke-width="1.2" stroke-linecap="round" stroke-linejoin="round" opacity="0.7"/>
</svg>
